<svg xmlns="http://www.w3.org/2000/svg" viewBox="0 0 450 340.01"><defs><style>.cls-1{isolation:isolate;}.cls-2{fill:#3faa75;}.cls-3,.cls-4{fill:#fff;}.cls-4{mix-blend-mode:overlay;opacity:0.1;}</style></defs><g class="cls-1"><g id="Layer_2" data-name="Layer 2"><g id="Layer_1-2" data-name="Layer 1"><path class="cls-2" d="M450,0V189.76a243.82,243.82,0,0,1-52.83,78.94q-7,7-14.56,13.42A242.4,242.4,0,0,1,230.37,340q-2.67.06-5.37.06t-5.37-.06A242.4,242.4,0,0,1,67.39,282.12,244.11,244.11,0,0,1,0,189.74V0Z"/><path class="cls-3" d="M382.61,175.73v1.48a157.61,157.61,0,0,0-315.22,0v-1.48C67.39,88,138.1,16.6,225,16.6A155.83,155.83,0,0,1,336.44,63.2,158.87,158.87,0,0,1,382.61,175.73Z"/><path class="cls-4" d="M382.61,177.21V282.12a243.5,243.5,0,0,1-315.22,0V177.21a157.61,157.61,0,0,1,315.22,0Z"/></g></g></g></svg>